<svg xmlns="http://www.w3.org/2000/svg" xmlns:xlink="http://www.w3.org/1999/xlink"><symbol id="sprite-triangle" viewBox="0 0 14 9"><path d="M7 9 .938 0h12.124z"/></symbol><use xlink:href="#sprite-triangle" width="14" height="9" y="0"/><view id="sprite-triangle-view" viewBox="0 0 14 9"/><symbol id="sprite-whatsapp" viewBox="0 0 24 24"><path d="m17.501 13.747-3-1.5a.56.56 0 0 0-.562.035l-1.47.98a4 4 0 0 1-1.73-1.73l.98-1.47a.56.56 0 0 0 .035-.562l-1.5-3a.56.56 0 0 0-.504-.312A3.56 3.56 0 0 0 6.188 9.75a8.07 8.07 0 0 0 8.062 8.063 3.56 3.56 0 0 0 3.563-3.563.56.56 0 0 0-.312-.503m-3.25 2.94A6.946 6.946 0 0 1 7.312 9.75a2.44 2.44 0 0 1 2.101-2.414L10.6 9.71l-.974 1.46a.56.56 0 0 0-.05.528 5.1 5.1 0 0 0 2.725 2.725.56.56 0 0 0 .528-.05l1.46-.974 2.374 1.187a2.44 2.44 0 0 1-2.414 2.101M12 2.438a9.563 9.563 0 0 0-8.406 14.128l-1.089 3.269a1.313 1.313 0 0 0 1.66 1.66l3.27-1.09A9.563 9.563 0 1 0 12 2.439m0 18a8.44 8.44 0 0 1-4.225-1.132.57.57 0 0 0-.46-.047L3.81 20.428a.188.188 0 0 1-.237-.237l1.168-3.501a.56.56 0 0 0-.047-.46A8.437 8.437 0 1 1 12 20.437"/></symbol><use xlink:href="#sprite-whatsapp" width="24" height="24" y="9"/><view id="sprite-whatsapp-view" viewBox="0 9 24 24"/></svg>