<svg xmlns="http://www.w3.org/2000/svg" xmlns:xlink="http://www.w3.org/1999/xlink"><symbol id="sprite-arrow" viewBox="0 0 109 109"><g><path d="M98.22 11.41a91 91 0 0 0-7.964 1.265 76 76 0 0 0-7.704 2 64 64 0 0 0-7.415 2.857 55 55 0 0 0-6.877 3.762h-.001a49 49 0 0 0-6.334 4.846 45.4 45.4 0 0 0-5.702 6.208h-.001a44 44 0 0 0-2.598 3.824l-.263-.01-.08-.001h-.111a20 20 0 0 0-.6.009 18.8 18.8 0 0 0-8.593 2.349l-.01.005a21.2 21.2 0 0 0-4.58 3.446 27 27 0 0 0-3.317 3.976 36 36 0 0 0-2.559 4.374 47 47 0 0 0-2.015 4.705 62 62 0 0 0-1.634 5.158 79 79 0 0 0-1.217 5.212 100 100 0 0 0-1.003 6.009 126 126 0 0 0-.7 6.364 157 157 0 0 0-.436 7.009 3 3 0 0 0 5.995.237 151 151 0 0 1 .419-6.74 120 120 0 0 1 .667-6.061v-.002a94 94 0 0 1 .943-5.648 73 73 0 0 1 1.125-4.818l.001-.003a56 56 0 0 1 1.475-4.656v-.002a41 41 0 0 1 1.759-4.106l.002-.003a30 30 0 0 1 2.13-3.64l.001-.003a21 21 0 0 1 2.583-3.095l.002-.003a15.2 15.2 0 0 1 3.283-2.47 12.8 12.8 0 0 1 3.595-1.335 44 44 0 0 0-.396 1.014 43 43 0 0 0-1.593 5.194 41 41 0 0 0-.811 4.436 37 37 0 0 0-.289 3.875v.005a33 33 0 0 0-.007.67 31 31 0 0 0 .033 1.427 27 27 0 0 0 .09 1.298v.002l.043.414.012.095a12.25 12.25 0 0 0 6.698 9.242 19.96 19.96 0 0 0 8.888 2.33 21 21 0 0 0 .627.01 18 18 0 0 0 8.723-2.102 12.16 12.16 0 0 0 6.142-8.008l.003-.015a14 14 0 0 0 .34-3.114 16 16 0 0 0-.042-1.139 17 17 0 0 0-.076-.8l-.001-.012a14.4 14.4 0 0 0-.453-2.224 18 18 0 0 0-.784-2.188 21 21 0 0 0-.811-1.67l-.007-.014a26.7 26.7 0 0 0-3.139-4.545 32.1 32.1 0 0 0-7.266-6.305 25.2 25.2 0 0 0-6.363-3.015A38 38 0 0 1 61 35.978a39.4 39.4 0 0 1 4.947-5.385 43 43 0 0 1 5.559-4.253 49 49 0 0 1 6.13-3.353 58 58 0 0 1 6.724-2.591 70 70 0 0 1 7.098-1.843 85 85 0 0 1 7.44-1.182 3 3 0 0 0-.679-5.962M56.936 42.656a38 38 0 0 0-1.232 2.9 37 37 0 0 0-1.373 4.477 35 35 0 0 0-.694 3.796v.002a31 31 0 0 0-.242 3.245 27 27 0 0 0-.006.547v.001a25 25 0 0 0 .026 1.15 21 21 0 0 0 .07 1.013l.028.264a6.25 6.25 0 0 0 3.436 4.682l.099.051a13.96 13.96 0 0 0 6.258 1.649h.024a15 15 0 0 0 .476.008h.05a12 12 0 0 0 5.831-1.401 6.16 6.16 0 0 0 3.109-4.05 8 8 0 0 0 .192-1.767v-.013a10 10 0 0 0-.026-.717 11 11 0 0 0-.05-.519 8.4 8.4 0 0 0-.263-1.294v-.002a12 12 0 0 0-.521-1.452l-.002-.005a15 15 0 0 0-.58-1.193 20.7 20.7 0 0 0-2.43-3.52l-.006-.005a26.1 26.1 0 0 0-5.931-5.142l-.052-.034a19.2 19.2 0 0 0-6.19-2.67"/><path d="M20.186 72.572 30.285 86.87l11.084-11.91a3 3 0 0 1 4.392 4.088l-13.6 14.612a3 3 0 0 1-4.646-.313l-12.23-17.313a3 3 0 0 1 4.901-3.462"/></g></symbol><use xlink:href="#sprite-arrow" width="109" height="109" y="0"/><view id="sprite-arrow-view" viewBox="0 0 109 109"/><symbol id="sprite-arrow1" viewBox="0 0 99 112"><path d="M88.882 16.334a2.5 2.5 0 1 1 1.579 4.744zm-54.495 84.743a2.5 2.5 0 0 1-3.52.331l-17.329-14.35a2.5 2.5 0 0 1 3.19-3.852L32.13 95.963l12.756-15.404a2.5 2.5 0 0 1 3.851 3.19zm55.258-79.726a2.5 2.5 0 1 1-1.591-4.74zm-3.705-4.022a2.5 2.5 0 0 1 1.625 4.728zm.008 5.29a2.5 2.5 0 1 1-1.654-4.72zm-3.758-3.971a2.5 2.5 0 1 1 1.697 4.703zm.09 5.29a2.5 2.5 0 1 1-1.734-4.69zm-3.831-3.902a2.5 2.5 0 1 1 1.785 4.67zm.197 5.286a2.5 2.5 0 0 1-1.829-4.653zm-3.917-3.817a2.5 2.5 0 1 1 1.891 4.629zm.327 5.278a2.5 2.5 0 0 1-1.944-4.607zm-4.018-3.712a2.5 2.5 0 0 1 2.017 4.575zm.48 5.264a2.5 2.5 0 1 1-2.078-4.547zm-4.132-3.585a2.5 2.5 0 1 1 2.164 4.507zm.652 5.248a2.5 2.5 0 0 1-2.235-4.473zm-4.253-3.438a2.5 2.5 0 1 1 2.332 4.423zm.852 5.221a2.5 2.5 0 0 1-2.413-4.379zm-4.394-3.255a2.5 2.5 0 0 1 2.523 4.317zM61.33 33.7a2.5 2.5 0 1 1-2.613-4.262zm-4.547-3.038a2.5 2.5 0 1 1 2.735 4.185zm1.356 5.11a2.5 2.5 0 1 1-2.834-4.119zm-4.708-2.785a2.5 2.5 0 1 1 2.968 4.025zm1.647 5.026a2.5 2.5 0 0 1-3.074-3.944zm-4.866-2.495a2.5 2.5 0 0 1 3.214 3.83zm1.965 4.91a2.5 2.5 0 1 1-3.325-3.734zm-5.023-2.162a2.5 2.5 0 0 1 3.47 3.6zm2.303 4.76a2.5 2.5 0 1 1-3.581-3.49zm-5.165-1.794a2.5 2.5 0 1 1 3.723 3.336zm2.65 4.576a2.5 2.5 0 0 1-3.833-3.212zm-5.288-1.396a2.5 2.5 0 1 1 3.968 3.041zm2.996 4.356a2.5 2.5 0 1 1-4.07-2.905zm-5.379-.983a2.5 2.5 0 1 1 4.194 2.723zm3.323 4.115a2.5 2.5 0 1 1-4.284-2.578zm-5.437-.566a2.5 2.5 0 1 1 4.391 2.391zm3.63 3.847a2.5 2.5 0 0 1-4.468-2.245zm-5.467-.148a2.5 2.5 0 0 1 4.558 2.056zm3.908 3.56a2.5 2.5 0 0 1-4.62-1.912zm-5.465.25a2.5 2.5 0 0 1 4.692 1.729zm4.147 3.278a2.5 2.5 0 1 1-4.74-1.59zm-5.434.612a2.5 2.5 0 1 1 4.795 1.416zm4.348 3.011a2.5 2.5 0 1 1-4.832-1.285zm-5.385.942a2.5 2.5 0 0 1 4.872 1.124zm4.518 2.755a2.5 2.5 0 0 1-4.899-1.002zm-5.322 1.24a2.5 2.5 0 0 1 4.927.854zm4.658 2.513a2.5 2.5 0 1 1-4.944-.743zm-5.25 1.506a2.5 2.5 0 0 1 4.962.608zm4.774 2.286a2.5 2.5 0 0 1-4.974-.507zm-5.176 1.744a2.5 2.5 0 0 1 4.985.386zm4.87 2.074a2.5 2.5 0 0 1-4.99-.295zm-5.099 1.96a2.5 2.5 0 0 1 4.997.184zm4.948 1.875a2.5 2.5 0 0 1-4.998-.103zm-5.022 2.155a2.5 2.5 0 0 1 5 .004zm5.011 1.692a2.5 2.5 0 0 1-5 .07zm-4.947 2.336a2.5 2.5 0 1 1 4.998-.16zm5.062 1.519a2.5 2.5 0 0 1-4.995.225zm-4.873 2.504a2.5 2.5 0 0 1 4.99-.308zm5.104 1.358a2.5 2.5 0 0 1-4.987.367zm-4.804 2.623a2.5 2.5 0 0 1 4.98-.44zm59.78-80.12.789 2.371-.816.273-.795-2.37-.796-2.37.828-.277zm-2.92.986.813 2.364q-.812.279-1.617.561l-.827-2.359-.827-2.36q.82-.286 1.646-.57zM83.039 21l.849 2.351q-.81.292-1.607.587l-.867-2.345-.867-2.345q.819-.302 1.644-.6zm-3.697 1.371.893 2.336q-.8.305-1.588.615l-.915-2.327-.914-2.326q.811-.32 1.632-.633zm-3.666 1.448.945 2.315q-.787.32-1.564.649l-.972-2.303-.972-2.304q.804-.34 1.617-.67zm-3.629 1.54 1.01 2.287q-.776.34-1.538.69l-1.039-2.274-1.039-2.274q.794-.363 1.598-.717zm-3.578 1.645 1.082 2.253q-.764.366-1.512.74l-1.118-2.236-1.117-2.236q.786-.393 1.583-.775zm-3.517 1.768 1.166 2.211q-.748.395-1.48.798l-1.207-2.19-1.206-2.189a96 96 0 0 1 1.561-.842zm-3.447 1.912 1.262 2.159q-.725.423-1.434.858l-1.307-2.131-1.307-2.131a85 85 0 0 1 1.525-.913zm-3.353 2.072 1.368 2.092q-.698.457-1.379.925l-1.417-2.06-1.417-2.059q.73-.503 1.478-.991zM54.916 35l1.484 2.012q-.67.493-1.321 1l-1.537-1.971-1.537-1.972q.705-.55 1.427-1.082zm-3.096 2.433 1.607 1.915a56 56 0 0 0-1.25 1.08l-1.662-1.867-1.662-1.867q.67-.597 1.36-1.176zm-2.93 2.633 1.734 1.8q-.593.572-1.166 1.16l-1.79-1.745-1.791-1.744q.63-.645 1.278-1.271zM46.154 42.9l1.862 1.668q-.546.61-1.073 1.24l-1.917-1.606-1.916-1.606q.581-.693 1.183-1.364zm-2.515 3.032 1.984 1.521q-.496.648-.972 1.315l-2.035-1.452-2.035-1.453q.526-.737 1.074-1.451zm-2.27 3.215 2.096 1.361q-.445.685-.87 1.392l-2.142-1.289-2.142-1.29q.47-.78.961-1.536zm-2.015 3.383 2.195 1.195q-.39.717-.761 1.456l-2.234-1.123-2.234-1.122q.408-.812.838-1.602zM37.6 56.062l2.279 1.028q-.335.74-.65 1.504l-2.31-.956-2.31-.956q.346-.834.712-1.648zm-1.49 3.647 2.346.864a56 56 0 0 0-.545 1.549l-2.37-.795-2.37-.795q.285-.855.593-1.687zm-1.236 3.733 2.398.708a61 61 0 0 0-.447 1.595l-2.416-.642-2.416-.643a66 66 0 0 1 .484-1.726zm-.998 3.807 2.437.562q-.187.805-.355 1.631l-2.45-.5-2.449-.502q.181-.886.381-1.753zm-.777 3.86 2.464.427a75 75 0 0 0-.269 1.659l-2.472-.371-2.472-.372q.135-.894.286-1.77zm-.574 3.896 2.481.304q-.102.83-.188 1.678l-2.487-.254-2.487-.254q.09-.897.2-1.778zm-.39 3.919 2.492.193a94 94 0 0 0-.114 1.688l-2.496-.147-2.496-.148a98 98 0 0 1 .121-1.779zm-.223 3.932 2.498.093q-.03.837-.048 1.691l-2.5-.051-2.5-.052q.02-.894.051-1.773zm-.073 3.941 2.5.002q0 .836.011 1.688l-2.5.035-2.5.035q-.012-.889-.011-1.762zm.063 3.946 2.499-.08q.026.831.064 1.679l-2.497.112-2.497.114q-.04-.88-.068-1.745zm.186 3.95 2.495-.154q.05.825.113 1.665l-2.494.184-2.493.183q-.064-.87-.117-1.725zm.294 3.914 2.49-.22.079.862-2.489.234-2.49.234-.08-.89z"/></symbol><use xlink:href="#sprite-arrow1" width="99" height="112" y="109"/><view id="sprite-arrow1-view" viewBox="0 109 99 112"/><symbol id="sprite-arrowDown" viewBox="0 0 109 109"><g><path d="M98.22 11.41a91 91 0 0 0-7.964 1.265 76 76 0 0 0-7.704 2 64 64 0 0 0-7.415 2.857 55 55 0 0 0-6.877 3.762h-.001a49 49 0 0 0-6.334 4.846 45.4 45.4 0 0 0-5.702 6.208h-.001a44 44 0 0 0-2.598 3.824l-.263-.01-.08-.001h-.111a20 20 0 0 0-.6.009 18.8 18.8 0 0 0-8.593 2.349l-.01.005a21.2 21.2 0 0 0-4.58 3.446 27 27 0 0 0-3.317 3.976 36 36 0 0 0-2.559 4.374 47 47 0 0 0-2.015 4.705 62 62 0 0 0-1.634 5.158 79 79 0 0 0-1.217 5.212 100 100 0 0 0-1.003 6.009 126 126 0 0 0-.7 6.364 157 157 0 0 0-.436 7.009 3 3 0 0 0 5.995.237 151 151 0 0 1 .419-6.74 120 120 0 0 1 .667-6.061v-.002a94 94 0 0 1 .943-5.648 73 73 0 0 1 1.125-4.818l.001-.003a56 56 0 0 1 1.475-4.656v-.002a41 41 0 0 1 1.759-4.106l.002-.003a30 30 0 0 1 2.13-3.64l.001-.003a21 21 0 0 1 2.583-3.095l.002-.003a15.2 15.2 0 0 1 3.283-2.47 12.8 12.8 0 0 1 3.595-1.335 44 44 0 0 0-.396 1.014 43 43 0 0 0-1.593 5.194 41 41 0 0 0-.811 4.436 37 37 0 0 0-.289 3.875v.005a33 33 0 0 0-.007.67 31 31 0 0 0 .033 1.427 27 27 0 0 0 .09 1.298v.002l.043.414.012.095a12.25 12.25 0 0 0 6.698 9.242 19.96 19.96 0 0 0 8.888 2.33 21 21 0 0 0 .627.01 18 18 0 0 0 8.723-2.102 12.16 12.16 0 0 0 6.142-8.008l.003-.015a14 14 0 0 0 .34-3.114 16 16 0 0 0-.042-1.139 17 17 0 0 0-.076-.8l-.001-.012a14.4 14.4 0 0 0-.453-2.224 18 18 0 0 0-.784-2.188 21 21 0 0 0-.811-1.67l-.007-.014a26.7 26.7 0 0 0-3.139-4.545 32.1 32.1 0 0 0-7.266-6.305 25.2 25.2 0 0 0-6.363-3.015A38 38 0 0 1 61 35.978a39.4 39.4 0 0 1 4.947-5.385 43 43 0 0 1 5.559-4.253 49 49 0 0 1 6.13-3.353 58 58 0 0 1 6.724-2.591 70 70 0 0 1 7.098-1.843 85 85 0 0 1 7.44-1.182 3 3 0 0 0-.679-5.962M56.936 42.656a38 38 0 0 0-1.232 2.9 37 37 0 0 0-1.373 4.477 35 35 0 0 0-.694 3.796v.002a31 31 0 0 0-.242 3.245 27 27 0 0 0-.006.547v.001a25 25 0 0 0 .026 1.15 21 21 0 0 0 .07 1.013l.028.264a6.25 6.25 0 0 0 3.436 4.682l.099.051a13.96 13.96 0 0 0 6.258 1.649h.024a15 15 0 0 0 .476.008h.05a12 12 0 0 0 5.831-1.401 6.16 6.16 0 0 0 3.109-4.05 8 8 0 0 0 .192-1.767v-.013a10 10 0 0 0-.026-.717 11 11 0 0 0-.05-.519 8.4 8.4 0 0 0-.263-1.294v-.002a12 12 0 0 0-.521-1.452l-.002-.005a15 15 0 0 0-.58-1.193 20.7 20.7 0 0 0-2.43-3.52l-.006-.005a26.1 26.1 0 0 0-5.931-5.142l-.052-.034a19.2 19.2 0 0 0-6.19-2.67"/><path d="M20.186 72.572 30.285 86.87l11.084-11.91a3 3 0 0 1 4.392 4.088l-13.6 14.612a3 3 0 0 1-4.646-.313l-12.23-17.313a3 3 0 0 1 4.901-3.462"/></g></symbol><use xlink:href="#sprite-arrowDown" width="109" height="109" y="221"/><view id="sprite-arrowDown-view" viewBox="0 221 109 109"/><symbol id="sprite-arrowSimple" viewBox="0 0 99 112"><path d="M88.882 16.334a2.5 2.5 0 1 1 1.58 4.744zm-54.494 84.743a2.5 2.5 0 0 1-3.52.331l-17.33-14.35a2.5 2.5 0 0 1 3.19-3.852l15.404 12.757 12.756-15.404a2.5 2.5 0 1 1 3.851 3.19zm55.258-79.726a2.5 2.5 0 1 1-1.592-4.74zm-3.705-4.022a2.5 2.5 0 0 1 1.625 4.728zm.008 5.29a2.5 2.5 0 1 1-1.654-4.72zm-3.758-3.971a2.5 2.5 0 1 1 1.696 4.703zm.09 5.29a2.5 2.5 0 1 1-1.734-4.69zm-3.831-3.902a2.5 2.5 0 1 1 1.784 4.67zm.197 5.286a2.5 2.5 0 0 1-1.83-4.653zm-3.917-3.817a2.5 2.5 0 1 1 1.89 4.629zm.327 5.278a2.5 2.5 0 0 1-1.944-4.607zm-4.018-3.712a2.5 2.5 0 0 1 2.017 4.575zm.48 5.264a2.5 2.5 0 1 1-2.078-4.547zm-4.132-3.585a2.5 2.5 0 1 1 2.163 4.507zm.651 5.248a2.5 2.5 0 0 1-2.234-4.473zm-4.252-3.438a2.5 2.5 0 1 1 2.332 4.423zm.851 5.221a2.5 2.5 0 0 1-2.413-4.379zm-4.394-3.255a2.5 2.5 0 0 1 2.523 4.317zm1.09 5.175a2.5 2.5 0 1 1-2.614-4.262zm-4.549-3.038a2.5 2.5 0 1 1 2.736 4.185zm1.357 5.11a2.5 2.5 0 1 1-2.835-4.119zm-4.708-2.785a2.5 2.5 0 1 1 2.967 4.025zm1.647 5.026a2.5 2.5 0 0 1-3.074-3.944zm-4.866-2.495a2.5 2.5 0 0 1 3.214 3.83zm1.964 4.91a2.5 2.5 0 1 1-3.325-3.734zm-5.022-2.162a2.5 2.5 0 0 1 3.469 3.6zm2.303 4.76a2.5 2.5 0 1 1-3.582-3.49zm-5.166-1.794a2.5 2.5 0 1 1 3.724 3.336zm2.65 4.576a2.5 2.5 0 0 1-3.832-3.212zm-5.287-1.396a2.5 2.5 0 1 1 3.968 3.041zm2.995 4.356a2.5 2.5 0 1 1-4.07-2.905zm-5.378-.983a2.5 2.5 0 1 1 4.193 2.723zm3.322 4.115a2.5 2.5 0 1 1-4.283-2.578zm-5.436-.566a2.5 2.5 0 1 1 4.391 2.391zm3.63 3.847a2.5 2.5 0 1 1-4.468-2.245zm-5.467-.148a2.5 2.5 0 0 1 4.557 2.056zm3.908 3.56a2.5 2.5 0 0 1-4.62-1.912zm-5.465.25a2.5 2.5 0 0 1 4.691 1.729zm4.147 3.278a2.5 2.5 0 1 1-4.74-1.59zm-5.435.612a2.5 2.5 0 1 1 4.796 1.416zm4.349 3.011a2.5 2.5 0 0 1-4.833-1.285zm-5.385.942a2.5 2.5 0 0 1 4.872 1.124zm4.517 2.755a2.5 2.5 0 0 1-4.898-1.002zm-5.321 1.24a2.5 2.5 0 1 1 4.926.854zm4.658 2.513a2.5 2.5 0 1 1-4.945-.743zM30.044 74.7a2.5 2.5 0 0 1 4.963.608zm4.775 2.286a2.5 2.5 0 1 1-4.975-.507zm-5.176 1.744a2.5 2.5 0 0 1 4.985.386zm4.87 2.074a2.5 2.5 0 1 1-4.991-.295zm-5.099 1.96a2.5 2.5 0 0 1 4.997.184zm4.948 1.875a2.5 2.5 0 1 1-4.999-.103zm-5.023 2.155a2.5 2.5 0 0 1 5 .004zm5.012 1.692a2.5 2.5 0 0 1-5 .07zm-4.947 2.336a2.5 2.5 0 0 1 4.997-.16zm5.062 1.519a2.5 2.5 0 0 1-4.995.225zm-4.873 2.504a2.5 2.5 0 0 1 4.99-.308zm5.103 1.358a2.5 2.5 0 0 1-4.986.367zm-4.804 2.623a2.5 2.5 0 0 1 4.981-.44zm59.78-80.12.79 2.371q-.41.136-.816.273l-.796-2.37-.796-2.37.828-.277zm-2.919.986.813 2.364q-.812.279-1.617.561l-.827-2.359-.827-2.36a287 287 0 0 1 1.646-.57zM83.04 21l.848 2.351q-.807.292-1.607.587l-.866-2.345-.867-2.345q.817-.302 1.644-.6zm-3.697 1.371.892 2.336q-.798.305-1.587.615l-.915-2.327-.914-2.326q.81-.32 1.632-.633zm-3.667 1.448.946 2.315q-.788.32-1.564.649l-.972-2.303-.972-2.304q.804-.34 1.617-.67zm-3.628 1.54 1.009 2.287q-.775.34-1.537.69l-1.04-2.274-1.038-2.274q.794-.363 1.598-.717zm-3.578 1.645 1.081 2.253q-.762.366-1.512.74l-1.117-2.236-1.117-2.236q.785-.393 1.583-.775zm-3.517 1.768 1.166 2.211q-.748.395-1.48.798l-1.207-2.19-1.207-2.189a97 97 0 0 1 1.562-.842zm-3.447 1.912 1.261 2.159q-.724.423-1.434.858l-1.307-2.131-1.306-2.131a85 85 0 0 1 1.524-.913zm-3.353 2.072 1.368 2.092q-.698.457-1.38.925l-1.417-2.06-1.417-2.059q.731-.503 1.478-.991zM54.916 35l1.484 2.012q-.669.493-1.32 1l-1.537-1.971-1.537-1.972q.705-.55 1.427-1.082zm-3.095 2.433 1.607 1.915a56 56 0 0 0-1.25 1.08l-1.662-1.867-1.663-1.867q.672-.597 1.36-1.176zm-2.93 2.633 1.734 1.8q-.593.572-1.166 1.16l-1.791-1.745-1.79-1.744q.628-.645 1.278-1.271zM46.155 42.9l1.862 1.668q-.546.61-1.074 1.24l-1.916-1.606-1.916-1.606q.58-.693 1.182-1.364zm-2.515 3.032 1.984 1.521q-.496.648-.973 1.315l-2.035-1.452-2.035-1.453q.527-.737 1.075-1.451zm-2.27 3.215 2.096 1.361q-.446.685-.87 1.392l-2.143-1.289-2.142-1.29q.47-.78.962-1.536zm-2.016 3.383 2.196 1.195q-.39.717-.761 1.456l-2.234-1.123-2.234-1.122q.408-.812.838-1.602zm-1.753 3.531 2.279 1.028q-.335.74-.65 1.504l-2.31-.956-2.31-.956q.345-.834.712-1.648zm-1.49 3.647 2.346.864q-.282.763-.545 1.549l-2.37-.795-2.37-.795q.285-.855.593-1.687zm-1.236 3.733 2.398.708a61 61 0 0 0-.448 1.595l-2.416-.642-2.416-.643a66 66 0 0 1 .484-1.726zm-.998 3.807 2.436.562q-.186.805-.355 1.631l-2.449-.5-2.45-.502q.183-.886.382-1.753zm-.777 3.86 2.463.427a75 75 0 0 0-.268 1.659l-2.472-.371-2.473-.372q.134-.894.287-1.77zm-.575 3.896 2.482.304q-.102.83-.188 1.678l-2.487-.254-2.488-.254q.092-.897.2-1.778zm-.39 3.919 2.493.193q-.064.834-.115 1.688l-2.495-.147-2.496-.148a98 98 0 0 1 .12-1.779zm-.223 3.932 2.499.093q-.031.837-.049 1.691l-2.5-.051-2.499-.052q.019-.894.051-1.773zm-.073 3.941 2.5.002q0 .836.012 1.688l-2.5.035-2.5.035q-.012-.889-.012-1.762zm.063 3.946 2.5-.08q.025.831.064 1.679l-2.497.112-2.498.114q-.04-.88-.067-1.745zm.186 3.95 2.496-.154q.05.825.112 1.665l-2.493.184-2.493.183q-.064-.87-.117-1.725zm.295 3.914 2.49-.22q.038.429.079.862l-2.49.234-2.489.234-.08-.89z"/></symbol><use xlink:href="#sprite-arrowSimple" width="99" height="112" y="330"/><view id="sprite-arrowSimple-view" viewBox="0 330 99 112"/><symbol id="sprite-firework" viewBox="0 0 87 84"><path d="M27.8 58.814a390 390 0 0 0-1.364 1.936 4 4 0 0 0 6.554 4.587 382 382 0 0 1 1.336-1.896 475 475 0 0 1 2.342-3.274 538 538 0 0 1 2.35-3.23 548 548 0 0 1 3.875-5.223 494 494 0 0 1 4.16-5.457 405 405 0 0 1 3.834-4.883v-.001a296 296 0 0 1 4.599-5.625v-.001A189 189 0 0 1 59.598 31l.001-.002a111 111 0 0 1 3.113-3.335v-.001a62 62 0 0 1 2.305-2.25l.006-.006a30 30 0 0 1 1.932-1.652 4 4 0 0 0-4.94-6.293 38 38 0 0 0-2.439 2.086 70 70 0 0 0-2.6 2.539 119 119 0 0 0-3.336 3.575 197 197 0 0 0-4.285 4.948 304 304 0 0 0-4.721 5.775 413 413 0 0 0-3.91 4.979 502 502 0 0 0-4.226 5.544 556 556 0 0 0-3.931 5.298 546 546 0 0 0-2.384 3.278 483 483 0 0 0-2.383 3.33Zm16.836 13.594 30.66-17.222a4 4 0 0 1 3.917 6.975l-30.66 17.221a4 4 0 0 1-3.917-6.974M15.72 50.538a720 720 0 0 0 .65-2.676 903 903 0 0 0 .84-3.522 927 927 0 0 0 1.151-4.923v-.001l.395-1.717a770 770 0 0 0 .551-2.43 538 538 0 0 0 1.676-7.677 277 277 0 0 0 .876-4.327 139 139 0 0 0 .566-3.105 58 58 0 0 0 .372-2.468l.002-.018.009-.07a4 4 0 0 0-7.942-.969l-.005.045a50 50 0 0 1-.32 2.123l-.001.007a131 131 0 0 1-.535 2.93v.001a269 269 0 0 1-.85 4.2 530 530 0 0 1-1.651 7.566v.003h-.001l-.546 2.405-.39 1.7a919 919 0 0 1-1.141 4.88v.002a895 895 0 0 1-.834 3.492 712 712 0 0 1-.643 2.646 4 4 0 0 0 7.77 1.902"/></symbol><use xlink:href="#sprite-firework" width="87" height="84" y="442"/><view id="sprite-firework-view" viewBox="0 442 87 84"/><symbol id="sprite-telegram" viewBox="0 0 90 91"><path d="M85.2 17.414 72.996 74.959c-.92 4.061-3.322 5.072-6.733 3.16L47.672 64.417 38.7 73.046c-.992.992-1.823 1.823-3.736 1.823L36.3 55.934l34.46-31.138c1.498-1.335-.325-2.076-2.329-.74l-42.6 26.824-18.34-5.74c-3.989-1.245-4.06-3.989.83-5.902L80.056 11.6c3.32-1.245 6.227.74 5.144 5.813"/></symbol><use xlink:href="#sprite-telegram" width="90" height="91" y="526"/><view id="sprite-telegram-view" viewBox="0 526 90 91"/><symbol id="sprite-triangle" viewBox="0 0 14 9"><path d="M7 9 .938 0h12.124z"/></symbol><use xlink:href="#sprite-triangle" width="14" height="9" y="617"/><view id="sprite-triangle-view" viewBox="0 617 14 9"/><symbol id="sprite-whatsapp" viewBox="0 0 68 69"><g><path fill-rule="evenodd" d="M24.498 17.417c-.66-1.579-1.16-1.639-2.158-1.68-.34-.019-.719-.039-1.139-.039-1.3 0-2.658.38-3.477 1.22-1 1.019-3.478 3.397-3.478 8.274 0 4.878 3.557 9.595 4.037 10.255.5.659 6.934 10.813 16.926 14.951 7.813 3.238 10.131 2.938 11.91 2.559 2.597-.56 5.854-2.48 6.674-4.797.819-2.32.819-4.298.579-4.718s-.9-.659-1.898-1.159c-1-.5-5.855-2.898-6.774-3.218-.9-.34-1.759-.22-2.438.74-.96 1.34-1.898 2.699-2.657 3.518-.6.64-1.58.72-2.399.38-1.099-.46-4.176-1.54-7.973-4.918-2.937-2.618-4.935-5.875-5.515-6.855-.58-1-.06-1.58.4-2.119.5-.62.98-1.059 1.479-1.639s.779-.88 1.099-1.56c.34-.659.1-1.338-.14-1.838-.24-.501-2.238-5.379-3.058-7.357M33.99.147C15.246.146 0 15.396 0 34.145a33.75 33.75 0 0 0 6.474 19.928L2.238 66.707l13.068-4.177a33.73 33.73 0 0 0 18.704 5.617c18.744 0 33.99-15.252 33.99-34 0-18.749-15.246-34-33.99-34z" clip-rule="evenodd"/></g></symbol><use xlink:href="#sprite-whatsapp" width="68" height="69" y="626"/><view id="sprite-whatsapp-view" viewBox="0 626 68 69"/></svg>