<svg width="50" height="51" viewBox="0 0 50 51" fill="none" xmlns="http://www.w3.org/2000/svg">
<g filter="url(#filter0_d_262_1462)">
<path d="M23.8462 36.0922C32.0113 37.4923 39.1071 35.8472 39.6951 32.4179C40.2832 28.9886 34.1407 25.0736 25.9756 23.6735C17.8105 22.2734 10.7147 23.9184 10.1267 27.3478C9.53865 30.7771 15.6811 34.6921 23.8462 36.0922Z" fill="#D0D0D0"/>
<path d="M15.0156 15.7068L13.1143 26.7949C12.6327 29.6039 17.6156 32.7918 24.2192 33.9242C30.8228 35.0565 36.5831 33.7107 37.0563 30.951L38.9661 19.8136L15.0156 15.7068Z" fill="#D3976E"/>
<path d="M38.4075 23.0661C38.0202 25.0288 30.1084 25.9043 25.7224 25.1522C21.3365 24.4001 14.1683 20.9389 14.457 18.9592L13.9416 21.9653C19.3411 27.4569 30.9714 29.4511 37.892 26.0722L38.4075 23.0661Z" fill="#FFDD7D"/>
<path d="M37.5969 27.7973C37.2096 29.76 29.2979 30.6355 24.9119 29.8834C20.5259 29.1313 13.3578 25.6701 13.6465 23.6904L13.131 26.6965C18.5306 32.1881 30.1609 34.1823 37.0815 30.8034L37.5969 27.7973Z" fill="#FFDD7D"/>
<path d="M15.0156 15.7068L13.5875 24.0352C13.5115 24.4787 13.8381 24.9405 14.3802 25.0335C14.873 25.118 15.3757 24.8491 15.4602 24.3563L15.7898 22.4344C15.8912 21.843 16.5178 21.4431 17.2077 21.5614C17.8976 21.6797 18.3552 22.2655 18.2538 22.8569L17.8482 25.2223C17.7299 25.9122 18.2691 26.6135 19.0576 26.7487C19.8461 26.8839 20.5797 26.4516 20.7065 25.7124L21.1205 23.2977C21.2304 22.6571 21.9063 22.2657 22.5962 22.384C23.2861 22.5023 23.793 23.0965 23.6831 23.7371L23.4212 25.2648C23.362 25.6098 23.607 25.9562 24.0505 26.0322C24.4448 26.0998 24.8405 25.8633 24.8996 25.5183L25.1109 24.2863C25.1869 23.8428 25.6488 23.5161 26.1908 23.6091C26.6837 23.6936 27.068 24.1146 26.9835 24.6074L26.6286 26.6772C26.5103 27.3671 27.0496 28.0683 27.8381 28.2035C28.6265 28.3387 29.3602 27.9065 29.4869 27.1673L29.8841 24.8511C29.9855 24.2598 30.6121 23.8599 31.302 23.9782C31.9919 24.0965 32.4495 24.6823 32.3481 25.2736L32.0523 26.9985C31.9932 27.3434 32.2875 27.6983 32.6817 27.7659C33.0759 27.8335 33.4716 27.5969 33.5308 27.252L33.7336 26.0692C33.7843 25.7736 34.1222 25.5779 34.4672 25.637C34.8121 25.6962 35.0656 25.9933 35.0149 26.2889L34.7022 28.1123C34.5839 28.8022 35.1232 29.5035 35.9117 29.6387C36.7001 29.7739 37.4337 29.3416 37.5605 28.6024L39.0562 19.8798L15.0156 15.7068Z" fill="#A80038"/>
<path d="M26.1303 22.787C32.744 23.9211 38.4914 22.59 38.9674 19.8139C39.4435 17.0377 34.4679 13.8679 27.8541 12.7338C21.2404 11.5998 15.493 12.9309 15.017 15.707C14.541 18.4831 19.5166 21.653 26.1303 22.787Z" fill="#FF2C68"/>
<path d="M18.4033 15.78C18.9033 12.5683 33.1722 14.5585 32.7314 17.4252C32.4173 19.5527 23.3328 18.0964 23.5708 16.4124C23.7243 15.2212 29.4001 16.1437 29.2479 17.0308C29.0958 17.9178 24.4874 17.2798 25.7659 16.3322C23.7059 17.3994 29.5126 18.4459 29.683 17.1561C29.8873 15.6692 23.0527 14.7002 22.7907 16.2279C22.4513 18.5033 32.9904 20.0568 33.3805 17.4858C33.9058 14.1262 18.1599 11.5784 17.574 15.587C16.9205 19.9899 31.9271 24.1865 37.8594 19.4713C30.2291 23.4387 17.9372 18.7945 18.4033 15.78Z" fill="#FFA4A4"/>
<path d="M18.153 9.54855L17.2404 14.8708C17.1136 15.61 18.7075 15.7819 18.8173 15.1412L19.73 9.81895C19.8567 9.07975 18.2797 8.80934 18.153 9.54855Z" fill="#42ADE2"/>
<path d="M19.6453 10.3114L17.9247 10.8788L17.7642 11.8151L19.4763 11.297L19.6453 10.3114ZM17.4853 13.4414L17.3332 14.3284L19.0454 13.8103L19.2059 12.874L17.4853 13.4414Z" fill="#428BC1"/>
<path d="M19.9815 8.64433C19.7703 9.87634 18.144 9.59749 18.3553 8.36547C18.4229 7.97123 19.4804 6.8336 19.4804 6.8336C19.4804 6.8336 20.0491 8.25009 19.9815 8.64433Z" fill="#FF8B00"/>
<path d="M19.5183 8.97068C19.4 9.66061 18.5623 9.51695 18.6806 8.82702C18.7144 8.6299 19.2185 8.05686 19.2185 8.05686C19.2185 8.05686 19.5521 8.77356 19.5183 8.97068Z" fill="#FFF033"/>
<path d="M27.7877 8.96847L26.9934 13.6008C26.8667 14.34 28.2719 14.4288 28.3733 13.8374L29.1676 9.20507C29.2944 8.46587 27.9145 8.22926 27.7877 8.96847Z" fill="#42ADE2"/>
<path d="M29.1006 9.59916L27.5939 10.1018L27.4503 10.9395L28.9569 10.4369L29.1006 9.59916ZM27.2137 12.3194L27.0785 13.1079L28.5767 12.6545L28.7119 11.8661L27.2137 12.3194Z" fill="#428BC1"/>
<path d="M29.3534 8.12069C29.159 9.25414 27.7299 9.00908 27.9242 7.87563C27.9834 7.53067 28.8677 6.51552 28.8677 6.51552C28.8677 6.51552 29.4125 7.77572 29.3534 8.12069Z" fill="#FF8B00"/>
<path d="M28.9479 8.40634C28.8296 9.09626 28.1397 8.97796 28.258 8.28803C28.2918 8.09091 28.7297 7.60798 28.7297 7.60798C28.7297 7.60798 28.9817 8.20922 28.9479 8.40634Z" fill="#FFF033"/>
<path d="M36.4342 12.6831L35.5216 18.0054C35.3949 18.7446 36.9887 18.9164 37.0986 18.2758L38.0112 12.9535C38.138 12.2143 36.561 11.9439 36.4342 12.6831Z" fill="#42ADE2"/>
<path d="M37.9266 13.4459L36.206 14.0133L36.0454 14.9496L37.766 14.3823L37.9266 13.4459ZM35.7665 16.5759L35.6144 17.4629L37.3351 16.8956L37.4872 16.0085L35.7665 16.5759Z" fill="#428BC1"/>
<path d="M38.2628 11.7789C38.0515 13.0109 36.4253 12.732 36.6365 11.5C36.7041 11.1058 37.7616 9.96812 37.7616 9.96812C37.7616 9.96812 38.3388 11.3353 38.2628 11.7789Z" fill="#FF8B00"/>
<path d="M37.8113 12.0569C37.693 12.7468 36.8552 12.6031 36.9735 11.9132C37.0073 11.7161 37.5114 11.143 37.5114 11.143C37.5114 11.143 37.8451 11.8597 37.8113 12.0569Z" fill="#FFF033"/>
<path d="M21.6252 13.5425L20.5182 19.9983C20.3745 20.836 22.3303 20.9685 22.4401 20.3278L23.5471 13.8721C23.6823 13.0836 21.7604 12.7541 21.6252 13.5425Z" fill="#9FE4FF"/>
<path d="M23.4376 14.5132L21.3551 15.1199L21.1523 16.3027L23.2432 15.6466L23.4376 14.5132ZM20.8227 18.2246L20.6368 19.3088L22.7193 18.702L22.9052 17.6178L20.8227 18.2246Z" fill="#42ADE2"/>
<path d="M23.8429 12.4517C23.6147 13.7823 21.6435 13.4443 21.8717 12.1137C21.9562 11.6209 23.2122 10.213 23.2122 10.213C23.2122 10.213 23.9274 11.9589 23.8429 12.4517Z" fill="#FF8B00"/>
<path d="M23.273 12.8106C23.1463 13.5498 22.1606 13.3808 22.2874 12.6416C22.3296 12.3952 22.9577 11.6912 22.9577 11.6912C22.9577 11.6912 23.3153 12.5642 23.273 12.8106Z" fill="#FFF033"/>
<path d="M31.4821 15.2326L30.3751 21.6883C30.2315 22.5261 32.1872 22.6585 32.2971 22.0179L33.4041 15.5621C33.5477 14.7244 31.6258 14.3948 31.4821 15.2326Z" fill="#9FE4FF"/>
<path d="M33.3028 16.1538L31.2119 16.8098L31.0175 17.9433L33.1 17.3365L33.3028 16.1538ZM30.6795 19.9145L30.4936 20.9987L32.5845 20.3426L32.7704 19.2584L30.6795 19.9145Z" fill="#42ADE2"/>
<path d="M33.7062 14.0926C33.478 15.4232 31.5068 15.0852 31.7349 13.7546C31.8194 13.2618 33.0755 11.8538 33.0755 11.8538C33.0755 11.8538 33.7822 13.6491 33.7062 14.0926Z" fill="#FF8B00"/>
<path d="M33.1285 14.5008C33.0017 15.24 32.0161 15.071 32.1429 14.3318C32.1851 14.0854 32.8131 13.3814 32.8131 13.3814C32.8131 13.3814 33.1707 14.2544 33.1285 14.5008Z" fill="#FFF033"/>
</g>
<defs>
<filter id="filter0_d_262_1462" x="0.0878906" y="0.515625" width="49.6465" height="50.0759" filterUnits="userSpaceOnUse" color-interpolation-filters="sRGB">
<feFlood flood-opacity="0" result="BackgroundImageFix"/>
<feColorMatrix in="SourceAlpha" type="matrix" values="0 0 0 0 0 0 0 0 0 0 0 0 0 0 0 0 0 0 127 0" result="hardAlpha"/>
<feOffset dy="4"/>
<feGaussianBlur stdDeviation="5"/>
<feComposite in2="hardAlpha" operator="out"/>
<feColorMatrix type="matrix" values="0 0 0 0 0 0 0 0 0 0 0 0 0 0 0 0 0 0 0.25 0"/>
<feBlend mode="normal" in2="BackgroundImageFix" result="effect1_dropShadow_262_1462"/>
<feBlend mode="normal" in="SourceGraphic" in2="effect1_dropShadow_262_1462" result="shape"/>
</filter>
</defs>
</svg>
