<svg width="44" height="46" viewBox="0 0 44 46" fill="none" xmlns="http://www.w3.org/2000/svg">
<g filter="url(#filter0_d_262_1009)">
<path d="M33.3266 16.8063C33.3266 16.8063 31.9852 17.9592 29.6929 19.3017C28.9898 15.8624 27.1341 11.5938 23.5777 6.35676C23.5777 6.35676 22.5482 11.8698 18.8744 16.9846C17.1913 14.5796 16.4275 12.7026 16.4275 12.7026C4.8174 23.4691 14.7924 31.5148 20.9774 31.6556C28.8906 31.8356 35.7798 28.4423 33.3266 16.8063Z" fill="#FF9D33"/>
<path d="M28.8324 26.5092C29.4875 25.1294 29.9525 23.3227 29.9991 21.0415C29.9991 21.0415 29.0589 21.7809 27.4405 22.7161C26.9415 20.4225 25.6594 17.604 23.1818 14.082C23.1818 14.082 22.48 17.7429 19.9104 21.1923C18.7431 19.602 18.2182 18.3222 18.2182 18.3222C16.3185 21.1529 15.5897 23.4185 15.5795 25.2356C14.4806 24.8302 13.7927 24.5187 13.7927 24.5187C15.7574 29.7195 19.6452 30.9491 21.3733 30.9884C24.4658 31.0588 27.5874 30.2846 30.6003 26.2536C30.5995 26.2113 29.9206 26.3649 28.8324 26.5092Z" fill="#FFCE31"/>
<path d="M17.5082 23.9269C17.5082 23.9269 18.8128 25.5626 19.7604 25.2038C19.7604 25.2038 21.5278 22.5814 24.1369 21.1616C24.1369 21.1616 23.6699 25.2082 24.3205 25.9415C25.158 26.9326 27.347 24.9538 27.347 24.9538C27.3938 27.3639 24.6324 30.3017 22.0857 30.2438C19.6298 30.1879 16.0317 27.4857 17.5082 23.9269Z" fill="#FFDF85"/>
<path d="M29.9849 13.3068C30.9153 12.06 31.5258 10.7215 31.5258 10.7215C33.1651 13.2101 32.2387 14.6682 31.5656 15.1178C30.6237 15.7726 28.9221 14.7618 29.9849 13.3068ZM12.6041 12.4886C11.6204 10.987 11.4933 9.12454 11.4933 9.12454C9.28094 12.2439 10.1795 14.0394 10.9624 14.5644C11.9769 15.306 13.6837 14.246 12.6041 12.4886ZM17.8156 9.31067C17.9323 8.29901 17.4578 7.27389 17.4578 7.27389C19.6207 8.63327 19.6421 9.73261 19.3782 10.1915C18.9796 10.7318 17.7013 10.4492 17.8156 9.31067Z" fill="#FF9D33"/>
</g>
<defs>
<filter id="filter0_d_262_1009" x="0.0996094" y="0.356812" width="43.7305" height="45.3055" filterUnits="userSpaceOnUse" color-interpolation-filters="sRGB">
<feFlood flood-opacity="0" result="BackgroundImageFix"/>
<feColorMatrix in="SourceAlpha" type="matrix" values="0 0 0 0 0 0 0 0 0 0 0 0 0 0 0 0 0 0 127 0" result="hardAlpha"/>
<feOffset dy="4"/>
<feGaussianBlur stdDeviation="5"/>
<feComposite in2="hardAlpha" operator="out"/>
<feColorMatrix type="matrix" values="0 0 0 0 0 0 0 0 0 0 0 0 0 0 0 0 0 0 0.25 0"/>
<feBlend mode="normal" in2="BackgroundImageFix" result="effect1_dropShadow_262_1009"/>
<feBlend mode="normal" in="SourceGraphic" in2="effect1_dropShadow_262_1009" result="shape"/>
</filter>
</defs>
</svg>
