<svg width="45" height="44" viewBox="0 0 45 44" fill="none" xmlns="http://www.w3.org/2000/svg">
<g filter="url(#filter0_d_262_995)">
<path d="M34.2591 20.1575C33.089 26.6404 26.9113 30.9291 20.4284 29.759C13.9455 28.589 9.6568 22.4113 10.8269 15.9284C11.9969 9.44547 18.1746 5.15678 24.6575 6.32684C31.1404 7.49689 35.4291 13.6746 34.2591 20.1575Z" fill="#FFDD67"/>
<path d="M28.7593 21.5844C28.8157 21.272 28.6909 20.8462 28.2044 20.6374C26.8868 20.1174 24.9374 19.5236 22.3598 19.0584C19.7823 18.5932 17.7412 18.5071 16.332 18.4947C15.8032 18.5202 15.5374 18.8755 15.4811 19.1879C14.9665 22.0389 16.639 25.2845 21.0911 26.088C25.5432 26.8916 28.2448 24.4354 28.7593 21.5844Z" fill="#664E27"/>
<path d="M21.5364 15.8044C21.1539 13.6787 20.2437 12.466 19.1502 12.2686C18.0566 12.0713 16.7799 12.8893 15.6784 14.7471C15.565 14.9283 15.8921 15.3503 16.1226 15.1902C16.9595 14.5751 17.8751 14.4177 18.7343 14.5728C19.5935 14.7279 20.3963 15.1954 20.9653 16.0643C21.1644 16.3018 21.5793 16.0138 21.5364 15.8044Z" fill="#664E27"/>
<path d="M30.0892 17.348C29.7066 15.2223 28.7964 14.0096 27.7029 13.8122C26.6094 13.6149 25.3326 14.4329 24.2311 16.2907C24.1178 16.4719 24.4449 16.8938 24.6754 16.7338C25.5123 16.1187 26.4278 15.9613 27.287 16.1164C28.1853 16.2785 28.949 16.7389 29.518 17.6078C29.6781 17.8384 30.132 17.5574 30.0892 17.348Z" fill="#664E27"/>
<path d="M27.0595 21.3984C26.2285 21.0871 24.4743 20.5286 22.1702 20.1127C19.866 19.6969 18.0272 19.6069 17.1399 19.6081C16.6181 19.5946 16.5438 19.7828 16.5264 20.1023C16.5373 20.2655 16.495 20.4999 16.5308 20.7483C16.5276 20.9896 16.5845 21.1209 16.9821 21.1523C17.7382 21.2082 25.9786 22.6954 26.7065 22.9074C27.09 23.017 27.1502 22.9068 27.2706 22.6866C27.3519 22.4593 27.4262 22.2711 27.5005 22.0829C27.5569 21.7705 27.5531 21.5682 27.0595 21.3984Z" fill="white"/>
<path d="M34.2591 20.1575C33.089 26.6404 26.9113 30.9291 20.4284 29.759C13.9455 28.589 9.6568 22.4113 10.8269 15.9284C11.9969 9.44547 18.1746 5.15678 24.6575 6.32684C31.1404 7.49689 35.4291 13.6746 34.2591 20.1575Z" fill="#FFDD67"/>
<path d="M28.7593 21.5844C28.8157 21.272 28.6909 20.8462 28.2044 20.6374C26.8868 20.1174 24.9374 19.5236 22.3598 19.0584C19.7823 18.5932 17.7412 18.5071 16.332 18.4947C15.8032 18.5202 15.5374 18.8755 15.4811 19.1879C14.9665 22.0389 16.639 25.2845 21.0911 26.088C25.5432 26.8916 28.2448 24.4354 28.7593 21.5844Z" fill="#664E27"/>
<path d="M21.5364 15.8044C21.1539 13.6787 20.2437 12.466 19.1502 12.2686C18.0566 12.0713 16.7799 12.8893 15.6784 14.7471C15.565 14.9283 15.8921 15.3503 16.1226 15.1902C16.9595 14.5751 17.8751 14.4177 18.7343 14.5728C19.5935 14.7279 20.3963 15.1954 20.9653 16.0643C21.1644 16.3018 21.5793 16.0138 21.5364 15.8044Z" fill="#664E27"/>
<path d="M30.0892 17.348C29.7066 15.2223 28.7964 14.0096 27.7029 13.8122C26.6094 13.6149 25.3326 14.4329 24.2311 16.2907C24.1178 16.4719 24.4449 16.8938 24.6754 16.7338C25.5123 16.1187 26.4278 15.9613 27.287 16.1164C28.1853 16.2785 28.949 16.7389 29.518 17.6078C29.6781 17.8384 30.132 17.5574 30.0892 17.348Z" fill="#664E27"/>
<path d="M27.0595 21.3984C26.2285 21.0871 24.4743 20.5286 22.1702 20.1127C19.866 19.6969 18.0272 19.6069 17.1399 19.6081C16.6181 19.5946 16.5438 19.7828 16.5264 20.1023C16.5373 20.2655 16.495 20.4999 16.5308 20.7483C16.5276 20.9896 16.5916 21.0819 16.9821 21.1523L26.7065 22.9074C27.097 22.9779 27.1502 22.9068 27.2706 22.6866C27.3519 22.4593 27.4262 22.2711 27.5005 22.0829C27.5569 21.7705 27.5531 21.5682 27.0595 21.3984Z" fill="white"/>
</g>
<defs>
<filter id="filter0_d_262_995" x="0.634766" y="0.134521" width="43.8164" height="43.8169" filterUnits="userSpaceOnUse" color-interpolation-filters="sRGB">
<feFlood flood-opacity="0" result="BackgroundImageFix"/>
<feColorMatrix in="SourceAlpha" type="matrix" values="0 0 0 0 0 0 0 0 0 0 0 0 0 0 0 0 0 0 127 0" result="hardAlpha"/>
<feOffset dy="4"/>
<feGaussianBlur stdDeviation="5"/>
<feComposite in2="hardAlpha" operator="out"/>
<feColorMatrix type="matrix" values="0 0 0 0 0 0 0 0 0 0 0 0 0 0 0 0 0 0 0.25 0"/>
<feBlend mode="normal" in2="BackgroundImageFix" result="effect1_dropShadow_262_995"/>
<feBlend mode="normal" in="SourceGraphic" in2="effect1_dropShadow_262_995" result="shape"/>
</filter>
</defs>
</svg>
