<svg width="47" height="47" viewBox="0 0 47 47" fill="none" xmlns="http://www.w3.org/2000/svg">
<g filter="url(#filter0_d_262_1451)">
<path d="M35.167 22.6399C33.6575 29.4242 26.9637 33.6817 20.1809 32.1717C13.3981 30.6617 9.14135 23.9663 10.6509 17.1821C12.1604 10.3978 18.8542 6.14031 25.637 7.65033C32.4198 9.16034 36.6765 15.8557 35.167 22.6399Z" fill="#FFDD67"/>
<path d="M36.7958 14.9384C36.837 13.7895 36.4242 12.7539 35.4663 12.2405C34.4267 11.7088 33.3551 11.8991 32.1971 12.6708C31.9933 11.0812 31.4216 9.79585 30.2414 8.9326C29.0612 8.06934 27.6627 8.18695 26.6182 9.02674C25.5237 9.89831 24.824 11.5012 25.2409 13.8673C25.6443 16.1018 28.535 21.0347 28.6303 21.1846C28.8119 21.1392 33.6525 19.4288 34.965 18.3484C36.2684 17.3088 36.7546 16.0874 36.7958 14.9384ZM24.1666 8.48095C23.5767 7.2773 22.3601 6.57752 20.9253 6.8586C19.4904 7.13968 18.4277 8.06121 17.5691 9.41424C16.7977 8.25594 15.917 7.58806 14.7411 7.66941C13.6968 7.73718 12.8429 8.49075 12.3931 9.54873C11.9524 10.5658 11.9066 11.9282 12.6053 13.4135C13.3858 14.9169 17.0442 18.5194 17.1894 18.6376C17.3393 18.5422 22.0486 15.3013 23.3614 13.4489C24.7422 11.483 24.7791 9.77544 24.1666 8.48095Z" fill="#F46767"/>
<path d="M29.3021 23.9504C29.3748 23.6234 29.2614 23.1692 28.7575 22.9284C27.3911 22.3239 25.3618 21.6148 22.665 21.0144C19.9682 20.4141 17.8207 20.2362 16.336 20.163C15.7367 20.1583 15.4823 20.5306 15.4096 20.8576C14.7457 23.841 16.3701 27.3338 21.0282 28.3708C25.6953 29.3669 28.6473 26.8929 29.3021 23.9504Z" fill="#664E27"/>
<path d="M27.5278 23.6411C26.6652 23.2775 24.8402 22.6138 22.4295 22.0771C20.0187 21.5405 18.0846 21.3672 17.1493 21.3306C16.5999 21.2941 16.5136 21.4893 16.4817 21.8254C16.4862 21.9979 16.4316 22.2432 16.4588 22.5066C16.4451 22.7609 16.4995 22.9017 16.9172 22.9518C17.7117 23.0429 26.3332 24.9622 27.0914 25.2168C27.4909 25.3486 27.5591 25.2351 27.6953 25.0081C27.7908 24.772 27.8771 24.5767 27.9634 24.3815C28.0362 24.0545 28.0408 23.8411 27.5278 23.6411Z" fill="white"/>
</g>
<defs>
<filter id="filter0_d_262_1451" x="0.347656" y="0.796631" width="46.4512" height="45.6792" filterUnits="userSpaceOnUse" color-interpolation-filters="sRGB">
<feFlood flood-opacity="0" result="BackgroundImageFix"/>
<feColorMatrix in="SourceAlpha" type="matrix" values="0 0 0 0 0 0 0 0 0 0 0 0 0 0 0 0 0 0 127 0" result="hardAlpha"/>
<feOffset dy="4"/>
<feGaussianBlur stdDeviation="5"/>
<feComposite in2="hardAlpha" operator="out"/>
<feColorMatrix type="matrix" values="0 0 0 0 0 0 0 0 0 0 0 0 0 0 0 0 0 0 0.25 0"/>
<feBlend mode="normal" in2="BackgroundImageFix" result="effect1_dropShadow_262_1451"/>
<feBlend mode="normal" in="SourceGraphic" in2="effect1_dropShadow_262_1451" result="shape"/>
</filter>
</defs>
</svg>
