<svg width="45" height="45" viewBox="0 0 45 45" fill="none" xmlns="http://www.w3.org/2000/svg">
<g filter="url(#filter0_d_262_987)">
<path d="M33.575 15.0666C35.5389 21.243 32.1385 27.8142 25.962 29.7781C19.7855 31.742 13.2144 28.3416 11.2504 22.1651C9.28651 15.9886 12.687 9.41747 18.8635 7.45354C25.0399 5.48961 31.6111 8.89009 33.575 15.0666Z" fill="#FFDD67"/>
<path d="M28.0131 23.3487C25.5612 22.0798 26.64 22.6381 27.985 20.0391C29.33 17.44 28.2393 16.8445 30.703 18.1506C33.155 19.4194 33.8091 21.2189 33.0478 22.6901C32.3119 24.1122 30.465 24.6175 28.0131 23.3487Z" fill="#FF717F"/>
<path d="M28.2657 19.4996L31.8606 22.0438L27.7447 20.5666L28.2657 19.4996Z" fill="#E2596C"/>
<path d="M20.2714 16.3878C18.961 14.715 17.6116 14.0789 16.5698 14.4101C15.528 14.7414 14.7938 16.0401 14.6902 18.1624C14.675 18.3721 15.1535 18.5887 15.2804 18.3435C15.7253 17.4236 16.4493 16.8657 17.2678 16.6054C18.0864 16.3451 18.9996 16.3825 19.8941 16.8765C20.1765 16.9915 20.4049 16.5502 20.2714 16.3878ZM28.4198 13.7968C27.1095 12.124 25.7601 11.4879 24.7183 11.8192C23.6765 12.1504 22.9423 13.4491 22.8387 15.5715C22.8234 15.7812 23.302 15.9977 23.4289 15.7525C23.8738 14.8326 24.5977 14.2747 25.4163 14.0144C26.2349 13.7541 27.1481 13.7915 28.0426 14.2855C28.2878 14.4124 28.5534 13.9592 28.4198 13.7968ZM28.5224 17.0828C27.6441 19.8612 25.8868 21.0345 23.4311 21.8153C20.9754 22.5962 18.8631 22.6533 16.5415 20.8923C16.2236 20.6656 15.6874 21.041 15.9782 21.4401C17.7805 24.1446 21.2015 24.9824 24.1781 24.0359C27.1547 23.0895 29.4637 20.4297 29.373 17.181C29.3054 16.7109 28.651 16.7141 28.5224 17.0828Z" fill="#664E27"/>
</g>
<defs>
<filter id="filter0_d_262_987" x="0.693359" y="0.897217" width="43.4375" height="43.4371" filterUnits="userSpaceOnUse" color-interpolation-filters="sRGB">
<feFlood flood-opacity="0" result="BackgroundImageFix"/>
<feColorMatrix in="SourceAlpha" type="matrix" values="0 0 0 0 0 0 0 0 0 0 0 0 0 0 0 0 0 0 127 0" result="hardAlpha"/>
<feOffset dy="4"/>
<feGaussianBlur stdDeviation="5"/>
<feComposite in2="hardAlpha" operator="out"/>
<feColorMatrix type="matrix" values="0 0 0 0 0 0 0 0 0 0 0 0 0 0 0 0 0 0 0.25 0"/>
<feBlend mode="normal" in2="BackgroundImageFix" result="effect1_dropShadow_262_987"/>
<feBlend mode="normal" in="SourceGraphic" in2="effect1_dropShadow_262_987" result="shape"/>
</filter>
</defs>
</svg>
